# xmcd
#
# Track frame offsets:
#	150
#	17772
#	38842
#	61470
#	82425
#
# Disc length: 1321 seconds
#
# Revision: 1
# Processed by: cddbd v1.5.2PL0 Copyright (c) Steve Scherf et al.
# Submitted via: dBpowerAMP V4.0
#
DISCID=3f052705
DTITLE=Various Artist - Los Éxitos Más Refrescantes del Verano (Coca-Cola)
DYEAR=1997
DGENRE=New Age
TTITLE0=Visnadi and Diggs - Don't stop movin'
TTITLE1=Hinkel and Freudenthaler - Lemon tree
TTITLE2=Gimbel and Fox - Killing me softly
TTITLE3=Rick Smith and K. Hyde - Born slippy
TTITLE4=F. Cross - Shame
EXTD=
EXTT0=
EXTT1=
EXTT2=
EXTT3=
EXTT4=
PLAYORDER=
